<svg width="225" height="66" viewBox="0 0 225 66" fill="none" xmlns="http://www.w3.org/2000/svg">
<rect y="12" width="136" height="54" rx="8" fill="#E2DF17"/>
<path d="M28.3906 46.9688V50H14.0781V27.4531H28.3906V30.4688H17.5781V37.0625H27.8125V39.9688H17.5781V46.9688H28.3906ZM37.9531 43.7031H37.875L34.0625 50H30.3906L36.0312 41.5312L30.4531 33.0312H34.25L38.0156 39.2031H38.0938L41.8281 33.0312H45.5469L39.9531 41.4062L45.4844 50H41.75L37.9531 43.7031ZM56.5156 32.8594C60.8438 32.8594 63.6875 36.25 63.6875 41.5156C63.6875 46.7656 60.8594 50.1719 56.5938 50.1719C54.1562 50.1719 52.2344 49.0938 51.2188 47.2188H51.1562V55.625H47.7656V33.0312H51.0312V35.8438H51.1094C52.0625 34.0156 54.1562 32.8594 56.5156 32.8594ZM55.6562 47.2969C58.4062 47.2969 60.2188 45.0312 60.2188 41.5156C60.2188 38.0156 58.4062 35.7344 55.6562 35.7344C52.9688 35.7344 51.1406 38.0625 51.125 41.5156C51.1406 44.9844 52.9531 47.2969 55.6562 47.2969ZM66.3906 50V33.0312H69.625V35.8906H69.6875C70.2188 34 71.7812 32.8594 73.7812 32.8594C74.2812 32.8594 74.7031 32.9062 74.9688 32.9688V36.1406C74.6875 36.0312 74.0938 35.9375 73.4219 35.9375C71.1875 35.9375 69.7812 37.4844 69.7812 39.875V50H66.3906ZM83.4844 35.5781C81.0469 35.5781 79.2812 37.3594 79.0938 39.9688H87.7031C87.625 37.3281 85.9531 35.5781 83.4844 35.5781ZM87.6875 45.0312H90.9219C90.4375 48.0781 87.4531 50.2031 83.6406 50.2031C78.7188 50.2031 75.6562 46.8906 75.6562 41.5781C75.6562 36.2656 78.75 32.8125 83.5 32.8125C88.1562 32.8125 91.0938 36.0469 91.0938 41.1875V42.375H79.0781V42.5781C79.0781 45.5156 80.9219 47.4531 83.7031 47.4531C85.6719 47.4531 87.2188 46.5156 87.6875 45.0312ZM93.5469 37.8594C93.5469 34.875 96.2188 32.8281 100.125 32.8281C103.844 32.8281 106.531 34.9219 106.609 37.875H103.422C103.281 36.375 101.984 35.4375 100.047 35.4375C98.125 35.4375 96.8438 36.3281 96.8438 37.6719C96.8438 38.7031 97.6875 39.4062 99.4844 39.8438L102.297 40.5156C105.719 41.3438 106.984 42.5781 106.984 45.0781C106.984 48.1094 104.109 50.2031 100 50.2031C96.0469 50.2031 93.3438 48.1562 93.0938 45.0938H96.4375C96.7031 46.7188 98.0156 47.6094 100.172 47.6094C102.281 47.6094 103.609 46.7344 103.609 45.3594C103.609 44.2812 102.938 43.7188 101.156 43.2656L98.125 42.5156C95.0625 41.7656 93.5469 40.2031 93.5469 37.8594ZM109.453 37.8594C109.453 34.875 112.125 32.8281 116.031 32.8281C119.75 32.8281 122.438 34.9219 122.516 37.875H119.328C119.188 36.375 117.891 35.4375 115.953 35.4375C114.031 35.4375 112.75 36.3281 112.75 37.6719C112.75 38.7031 113.594 39.4062 115.391 39.8438L118.203 40.5156C121.625 41.3438 122.891 42.5781 122.891 45.0781C122.891 48.1094 120.016 50.2031 115.906 50.2031C111.953 50.2031 109.25 48.1562 109 45.0938H112.344C112.609 46.7188 113.922 47.6094 116.078 47.6094C118.188 47.6094 119.516 46.7344 119.516 45.3594C119.516 44.2812 118.844 43.7188 117.062 43.2656L114.031 42.5156C110.969 41.7656 109.453 40.2031 109.453 37.8594Z" fill="black"/>
<path d="M142.83 49.2793C140.977 49.2793 139.504 47.8066 139.504 45.9531C139.504 44.0742 140.977 42.627 142.83 42.627C144.709 42.627 146.156 44.0742 146.156 45.9531C146.156 47.8066 144.709 49.2793 142.83 49.2793ZM158.404 49H149.138V26.4531H158.373C162.357 26.4531 164.982 28.6719 164.982 32.0781C164.982 34.4688 163.232 36.6094 160.982 36.9844V37.1094C164.029 37.4531 166.107 39.625 166.107 42.625C166.107 46.5938 163.216 49 158.404 49ZM152.638 29.3125V36.0469H156.779C159.826 36.0469 161.498 34.7969 161.498 32.5625C161.498 30.4688 160.06 29.3125 157.513 29.3125H152.638ZM152.638 46.1406H157.701C160.857 46.1406 162.529 44.8438 162.529 42.4062C162.529 39.9688 160.795 38.7188 157.498 38.7188H152.638V46.1406ZM181.538 45.9688V49H167.538V26.4531H171.038V45.9688H181.538ZM191.751 26.0781C198.235 26.0781 202.313 30.5625 202.313 37.7344C202.313 44.9062 198.235 49.375 191.751 49.375C185.251 49.375 181.188 44.9062 181.188 37.7344C181.188 30.5625 185.251 26.0781 191.751 26.0781ZM191.751 29.1562C187.47 29.1562 184.766 32.4688 184.766 37.7344C184.766 42.9844 187.47 46.2969 191.751 46.2969C196.032 46.2969 198.72 42.9844 198.72 37.7344C198.72 32.4688 196.032 29.1562 191.751 29.1562ZM223.479 39.625C223.479 45.7344 219.87 49.375 213.76 49.375C207.307 49.375 203.245 44.8594 203.245 37.625C203.245 30.5156 207.291 26.0781 213.713 26.0781C218.729 26.0781 222.526 29.0469 223.307 33.5469H219.713C218.87 30.75 216.666 29.1406 213.729 29.1406C209.416 29.1406 206.823 32.2969 206.823 37.5938C206.823 42.9844 209.495 46.3125 213.791 46.3125C217.448 46.3125 219.979 43.9688 220.026 40.5469V40.1562H214.198V37.3281H223.479V39.625Z" fill="black"/>
</svg>
